<svg fill="#7dc325" height="512" viewBox="0 0 64 64" width="512" xmlns="http://www.w3.org/2000/svg"><circle cx="32" cy="21" r="4"/><path d="m18.159 49.215 4.421-18.545-.082-.118-6.8 2.269-10.698 20.506z"/><path d="m31 39.49a46.455 46.455 0 0 1 -6.859-6.745l-3.965 16.636 10.824 4.163z"/><path d="m39.859 32.745a46.455 46.455 0 0 1 -6.859 6.745v14.054l10.824-4.163z"/><path d="m59.107 53.361-9.818-20.53-7.753-2.331-.116.168 4.421 18.545z"/><path d="m43 21a11 11 0 0 0 -22 0c0 7.281 8.621 14.792 11 16.725 2.377-1.934 11-9.454 11-16.725zm-17 0a6 6 0 1 1 6 6 6.006 6.006 0 0 1 -6-6z"/></svg>