<?xml version="1.0" encoding="utf-8"?>
<!-- Generator: Adobe Illustrator 14.0.0, SVG Export Plug-In . SVG Version: 6.00 Build 43363)  -->
<!DOCTYPE svg PUBLIC "-//W3C//DTD SVG 1.1//EN" "http://www.w3.org/Graphics/SVG/1.1/DTD/svg11.dtd">
<svg version="1.1"
	 id="heinz" inkscape:version="0.48.4 r9939" sodipodi:docname="Heinz logo.svg" xmlns:inkscape="http://www.inkscape.org/namespaces/inkscape" xmlns:svg="http://www.w3.org/2000/svg" xmlns:cc="http://creativecommons.org/ns#" xmlns:dc="http://purl.org/dc/elements/1.1/" xmlns:rdf="http://www.w3.org/1999/02/22-rdf-syntax-ns#" xmlns:sodipodi="http://sodipodi.sourceforge.net/DTD/sodipodi-0.dtd"
	 xmlns="http://www.w3.org/2000/svg" xmlns:xlink="http://www.w3.org/1999/xlink" x="0px" y="0px" width="400px" height="300px"
	 viewBox="0 0 400 300" enable-background="new 0 0 400 300" xml:space="preserve">
<path id="path10" inkscape:connector-curvature="0" fill="#FF0000" d="M186.592,85.208c-40.13,1.15-79.735,8.53-111.955,20.819
	c-4.801,1.851-14.182,5.807-17.901,7.602c-0.387,0.169-0.914,0.759-1.164,1.292c-0.946,1.879-0.697,3.142,2.662,13.833
	c2.081,6.621,3.109,10.268,2.998,10.772c-0.195,1.095-1.333,2.583-2.358,3.032c-0.499,0.224-2.471,0.896-4.438,1.542
	c-3.832,1.235-14.127,5.19-15.987,6.173c-1.666,0.842-2.333,2.02-2.138,3.786c0.141,1.461,17.096,59.062,17.847,60.688
	c0.25,0.505,0.831,1.234,1.33,1.63l0.889,0.672h142.29c104.656,0,142.456-0.083,142.9-0.307c1.246-0.646,2.135-1.798,2.69-3.452
	c2.026-6.229,17.263-58.387,17.399-59.508c0.141-1.264,0.058-1.518-0.61-2.33c-0.416-0.505-1.138-1.122-1.582-1.346
	c-1.524-0.786-12.126-4.855-15.681-6.033c-1.969-0.618-4.023-1.347-4.634-1.6c-1.275-0.534-2.359-2.048-2.442-3.423
	c-0.054-0.925,5.216-19.528,5.938-20.958c0.502-1.01,0.111-3.114-0.776-4.04c-0.416-0.449-0.914-0.813-1.109-0.813
	c-0.193,0-1.889-0.702-3.773-1.573c-30.916-14.168-70.41-23.23-112.898-25.923c-5.884-0.364-21.788-0.842-26.643-0.786
	C195.388,84.984,190.504,85.096,186.592,85.208z M232.772,114.977c0.333,0.422,0.443,0.842,0.333,1.318
	c-1.445,6.088-1.886,7.351-3.136,8.754c-1.305,1.488-3.109,2.525-7.354,4.321c-1.304,0.532-3.081,1.178-3.94,1.403
	c-1.391,0.335-1.693,0.364-2.357,0c-1.641-0.842-1.749-2.862-0.419-7.154c1.221-3.872,1.692-4.686,3.441-5.865
	c2.524-1.683,5.494-2.749,9.658-3.366C231.107,114.051,232.162,114.219,232.772,114.977z M132.223,116.464
	c0.443,0.253,0.889,0.729,0.972,1.066c0.112,0.393-1.611,7.126-4.414,17.368c-2.525,9.202-4.605,16.861-4.605,17.03
	c0,0.225,2.026,0.31,7.048,0.31h7.051l0.112-0.646c0.083-0.337,1.664-6.229,3.521-13.103c2.694-10.016,3.608-12.99,4.608-15.066
	c1.416-2.891,3.414-5.304,5.382-6.481l1.277-0.758l7.188-0.084c3.941-0.056,7.354-0.027,7.604,0.084
	c0.333,0.112,0.195,0.42-0.692,1.347c-2.915,3.03-5.744,9.229-8.825,19.303c-2.055,6.678-11.074,42.199-11.186,44.021
	c-0.139,2.385,0.224,3.51,1.748,5.303l1.277,1.516l-0.638,0.645c-1.777,1.768-6.466,3.787-10.63,4.574
	c-2.662,0.504-8.159,0.868-8.878,0.588c-1-0.391-1.582-1.769-1.558-3.787c0-2.021,0.225-2.918,4.639-19.558
	c1.748-6.591,3.161-12.091,3.161-12.261c0-0.225-2.219-0.307-7.02-0.307h-7.021l-2.001,6.929
	c-2.691,9.288-4.024,12.065-7.604,15.937c-3.497,3.815-14.875,10.27-22.424,12.739c-4.884,1.599-6.216,1.822-10.686,1.851
	c-4.634,0-5.635-0.224-9.159-2.073c-5.965-3.116-11.404-12.992-11.96-21.718c-0.25-4.041,0.137-5.892,1.47-7.1
	c1.47-1.316,6.549-3.814,10.323-5.078c4.136-1.373,3.916-1.685,3.72,5.359c-0.112,4.238-0.054,5.947,0.304,8.163
	c0.917,5.555,3.193,11.001,5.635,13.386c2.25,2.215,6.44,3.419,9.879,2.914c3.999-0.613,8.717-6.59,12.296-15.514
	c0.502-1.316,2.637-8.473,4.718-15.907c2.055-7.408,4.995-17.93,6.522-23.373c1.499-5.414,2.832-10.604,2.915-11.503
	c0.332-3.197-0.609-3.758-6.552-3.955c-4.8-0.141-6.408,0.112-9.435,1.654c-3.414,1.74-5.606,4.461-6.856,8.53
	c-0.387,1.345-0.499,2.581-0.47,6.031c0,5.023,0.167,5.641,2.912,11.504c0.889,1.908,1.527,3.591,1.416,3.676
	c-0.25,0.279-5.855,1.037-9.131,1.262c-1.748,0.141-2.804,0.085-3.356-0.142c-1.278-0.531-2.525-3.311-3.774-8.305
	c-2.304-9.23,0.388-17.227,7.384-21.912c5.632-3.788,12.154-4.769,32.498-4.854C129.81,116.042,131.53,116.098,132.223,116.464z
	 M275.456,137.085c2.998,0.589,4.689,2.525,4.689,5.387c0,1.627-0.527,3.731-5.274,20.708c-5.104,18.346-5.41,19.894-3.994,21.604
	c0.415,0.477,1.222,1.122,1.803,1.429c0.613,0.31,1.084,0.646,1.084,0.786c0,1.63-13.85,7.044-18.039,7.044
	c-1.665,0-3.081-0.757-3.662-1.962c-0.918-1.825-0.585-4.268,1.44-10.521c0.585-1.854,2.139-7.326,3.472-12.178
	c1.304-4.854,2.939-10.662,3.607-12.938c0.665-2.271,1.305-4.881,1.388-5.777c0.165-1.432,0.107-1.769-0.42-2.442
	c-0.47-0.59-0.829-0.757-1.689-0.757c-2.915,0-7.798,3.396-9.771,6.819c-1.024,1.737-1.499,3.17-4.243,12.399
	c-3.749,12.684-3.749,12.684-3.915,17.115c-0.083,2.583-0.278,4.123-0.499,4.518c-0.942,1.484-10.157,5.358-13.487,5.641
	c-2.026,0.195-2.857-0.281-3.637-2.105c-0.914-2.049-0.611-5.104,0.971-10.018c0.694-2.156,2.998-9.623,5.106-16.552
	c3.663-12.147,3.805-12.711,3.829-15.151c0-2.329-0.054-2.61-0.802-3.731c-0.614-0.898-0.751-1.347-0.557-1.656
	c0.138-0.252,1.499-1.095,3.022-1.935c4.443-2.413,13.823-5.275,15.709-4.799c1.361,0.366,1.694,2.301,0.917,5.472
	c-0.668,2.637-0.668,2.637,3.248-0.056c3.912-2.666,9.156-4.994,13.292-5.863C272.874,136.748,273.401,136.692,275.456,137.085z
	 M197.111,138.881c2.33,1.207,3.663,2.974,4.245,5.751c1.138,5.358-4.219,12.091-13.182,16.527
	c-3.055,1.515-8.051,3.394-11.381,4.264c-1.33,0.364-2.607,0.812-2.803,1.011c-0.192,0.197-0.636,1.402-0.997,2.689
	c-0.499,1.854-0.64,3.029-0.64,5.837c-0.028,3.985,0.224,4.8,1.942,6.737c1.638,1.82,2.832,2.298,6.188,2.467
	c3.471,0.166,5.023-0.169,8.771-1.768c1.527-0.674,2.887-1.121,3.026-0.98c0.553,0.559-0.307,1.904-3.11,4.739
	c-5.272,5.36-9.131,7.297-16.428,8.19c-3.276,0.396-5.83,0.17-8.549-0.754c-3.995-1.349-6.104-3.171-7.688-6.65
	c-1.191-2.611-1.582-4.687-1.553-8.084c0.055-9.283,4.328-20.364,10.769-27.885c6.409-7.491,14.486-11.502,25.89-12.877
	C193.502,137.872,195.778,138.18,197.111,138.881z M225.194,138.488c0.308,0.309,0.61,0.87,0.723,1.263
	c0.308,1.291-0.972,6.368-5.386,21.322c-5.27,17.927-5.605,19.164-5.605,21.213c0,1.432,0.111,1.769,0.834,2.606
	c0.474,0.506,1.358,1.151,1.97,1.403c1.084,0.451,1.111,0.505,0.696,0.981c-0.613,0.703-5.33,3.113-8.438,4.35
	c-3.305,1.32-7.521,2.413-9.243,2.413c-1.802,0-3.662-0.927-4.218-2.103c-1.192-2.559-0.889-4.66,2.055-13.553
	c5.605-16.92,8.354-26.402,8.409-28.984c0.028-1.6-0.084-1.993-0.777-3.002c-0.415-0.646-0.722-1.347-0.639-1.571
	c0.581-1.544,8.993-5.135,15.04-6.426C223.392,137.787,224.53,137.815,225.194,138.488z M323.522,138.236
	c0.806,0.449,1,0.757,0.806,1.43c-0.083,0.309-6.104,8.839-13.434,18.969c-10.544,14.588-13.265,18.545-13.209,19.106l0.083,0.729
	l13.018,0.082c8.436,0.029,13.376-0.025,14.069-0.224c1.304-0.364,2.693-1.713,4.164-4.015c0.997-1.568,1.08-1.821,1.08-3.758
	c0-2.355-0.332-3.255-1.773-4.518c-1.083-0.955-2.471-1.291-4.746-1.122l-1.387,0.084l0.083-0.981
	c0.107-1.654,1.44-3.957,2.772-4.912c1.109-0.754,1.416-0.838,3.469-0.838c3.666,0.025,6.386,1.569,7.606,4.265
	c0.581,1.259,0.664,1.796,0.527,2.946c-0.558,4.207-5.079,12.51-11.714,21.574c-1.441,1.961-3.054,3.957-3.608,4.433l-0.969,0.868
	h-20.953c-17.652,0-21.095-0.054-21.899-0.393c-0.526-0.224-0.972-0.529-0.972-0.671c0-0.312,2.444-3.874,4.247-6.229
	c2.691-3.479,6.744-8.332,13.517-16.133c10.822-12.488,12.487-14.675,12.487-16.301v-0.954h-8.771h-8.771l-1.471,1.542
	c-1.333,1.403-1.997,1.797-2.413,1.403c-0.332-0.336,2.525-8.529,3.939-11.363c0.694-1.347,2.164-3.03,3.692-4.209
	c1.274-0.981,2.886-1.095,16.511-1.095C319.112,137.927,323.107,138.011,323.522,138.236z"/>
<path id="path12" inkscape:connector-curvature="0" fill="#FF0000" d="M183.038,144.801c-2.052,1.515-4.219,5.36-6.686,11.782
	c-1.777,4.66-1.777,4.743-0.029,4.545c0.748-0.083,2.442-0.505,3.746-0.896c2.749-0.844,2.525-0.588,4.69-5.894
	c2.413-6.004,3.054-9.314,1.887-9.959C185.675,143.875,184.01,144.043,183.038,144.801z"/>
</svg>
