<svg fill="#7dc325" xmlns="http://www.w3.org/2000/svg" viewBox="0 0 44.412 44.412"><path d="M14.602 29.607c0-2.297-1.869-4.166-4.166-4.166S6.27 27.31 6.27 29.607s1.869 4.166 4.166 4.166 4.166-1.868 4.166-4.166zm-4.166 3.113a3.115 3.115 0 01-3.111-3.113c0-1.715 1.396-3.111 3.111-3.111s3.111 1.396 3.111 3.111a3.114 3.114 0 01-3.111 3.113z"/><path d="M37.164.373a7.256 7.256 0 00-7.248 7.248c0 2.139 1.135 4.199 2.466 5.889l-9.157 8.76a3.506 3.506 0 00-1.057 2.128L20.711 37.04h-2.722c.186-.269.375-.532.549-.812 1.232-1.979 2.119-4.236 2.119-6.64 0-5.694-4.633-10.329-10.328-10.329S0 23.894 0 29.588c0 4.837 4.054 9.401 6.87 11.991.582.536 1.112.992 1.542 1.343.604.494 1.015.795 1.09.851.246.178.537.267.827.267h13.502a3.503 3.503 0 003.478-3.101l1.668-14.485s10.914-10.56 11.097-10.782c1.677-2.045 4.339-4.73 4.339-8.052C44.411 3.624 41.16.373 37.164.373zM2.828 29.588c0-4.136 3.365-7.5 7.501-7.5s7.5 3.365 7.5 7.5c0 5.033-5.385 9.66-7.475 11.265-2.087-1.691-7.526-6.555-7.526-11.265zm34.35-14.082c-1.867-1.501-5.262-4.855-5.262-7.887 0-2.894 2.354-5.248 5.248-5.248s5.247 2.354 5.247 5.248c0 3.524-3.77 6.763-5.233 7.887z"/><path d="M37.239 4.572a3.08 3.08 0 00-3.077 3.077c0 1.697 1.381 3.077 3.077 3.077s3.077-1.38 3.077-3.077a3.08 3.08 0 00-3.077-3.077zm0 5.1a2.025 2.025 0 01-2.022-2.023c0-1.115.907-2.023 2.022-2.023a2.024 2.024 0 010 4.046z"/></svg>