<svg id="Group_12" data-name="Group 12" xmlns="http://www.w3.org/2000/svg" xmlns:xlink="http://www.w3.org/1999/xlink" width="142" height="38" viewBox="0 0 142 38">
  <defs>
    <clipPath id="clip-path">
      <path id="Combined_Shape" data-name="Combined Shape" d="M19,38A19,19,0,0,1,11.6,1.493,19,19,0,0,1,26.4,36.507,18.88,18.88,0,0,1,19,38ZM19,1a18,18,0,0,0-7.007,34.586A18,18,0,0,0,26.006,2.414,17.888,17.888,0,0,0,19,1Z" fill="#6468a1"/>
    </clipPath>
    <clipPath id="clip-path-4">
      <path id="_Icon_Сolor" data-name="🎨 Icon Сolor" d="M11,.5a.5.5,0,0,0-.5-.5H8A4.77,4.77,0,0,0,3,4.5V7.2H.5a.5.5,0,0,0-.5.5v2.6a.5.5,0,0,0,.5.5H3v6.7a.5.5,0,0,0,.5.5h3a.5.5,0,0,0,.5-.5V10.8H9.619a.5.5,0,0,0,.483-.366l.721-2.6a.5.5,0,0,0-.481-.634H7V4.5a.954.954,0,0,1,1-.9h2.5a.5.5,0,0,0,.5-.5Z" fill="#eb0065"/>
    </clipPath>
  </defs>
  <g id="Button_Fav_icon_Copy" data-name="Button/Fav_icon Copy" transform="translate(52)">
    <g id="Element_Shape" data-name="Element/Shape">
      <path id="Combined_Shape-4" data-name="Combined Shape" d="M19,38A19,19,0,0,1,11.6,1.493,19,19,0,0,1,26.4,36.507,18.88,18.88,0,0,1,19,38ZM19,1a18,18,0,0,0-7.007,34.586A18,18,0,0,0,26.006,2.414,17.888,17.888,0,0,0,19,1Z" fill="#6468a1"/>
      <path id="_" data-name="" d="M8.5,12l-2.833-.031a22.2,22.2,0,0,1-3.8-.313A2.161,2.161,0,0,1,.9,11.093a2.186,2.186,0,0,1-.56-.937A14.352,14.352,0,0,1,.032,7.563L0,6c0-.454.01-.965.031-1.562A14.186,14.186,0,0,1,.343,1.875,2.178,2.178,0,0,1,1.868.344a22.128,22.128,0,0,1,3.8-.312L8.5,0l2.834.031a22.128,22.128,0,0,1,3.8.312,2.178,2.178,0,0,1,1.525,1.531,14.184,14.184,0,0,1,.311,2.563L17,6l-.031,1.562a14.354,14.354,0,0,1-.311,2.594,2.194,2.194,0,0,1-.56.937,2.161,2.161,0,0,1-.966.563,22.2,22.2,0,0,1-3.8.313ZM6.756,3.469V8.563L11.209,6Z" transform="translate(11 13)" fill="#eb0065"/>
    </g>
  </g>
  <g id="Button_Fav_icon_Copy_3" data-name="Button/Fav_icon Copy 3" transform="translate(104)">
    <g id="Element_Shape-3" data-name="Element/Shape">
      <path id="Combined_Shape-5" data-name="Combined Shape" d="M19,38A19,19,0,0,1,11.6,1.493,19,19,0,0,1,26.4,36.507,18.88,18.88,0,0,1,19,38ZM19,1a18,18,0,0,0-7.007,34.586A18,18,0,0,0,26.006,2.414,17.888,17.888,0,0,0,19,1Z" fill="#6468a1"/>
    </g>
    <g id="icons" transform="translate(12 12)">
      <path id="_2" data-name="" d="M7,14c-1.342,0-2.325-.016-2.922-.048a5.122,5.122,0,0,1-1.547-.3,3.35,3.35,0,0,1-1.359-.829,3.666,3.666,0,0,1-.859-1.359A5.933,5.933,0,0,1,.047,9.922C.018,9.374,0,8.519,0,7.305V7C0,5.628.015,4.672.047,4.078A5.947,5.947,0,0,1,.312,2.531,3.66,3.66,0,0,1,2.531.312,5.947,5.947,0,0,1,4.078.047C4.625.018,5.481,0,6.694,0H7C8.373,0,9.329.015,9.922.047a5.933,5.933,0,0,1,1.547.265,3.66,3.66,0,0,1,2.219,2.219,6.386,6.386,0,0,1,.282,1.563C13.987,4.6,14,5.38,14,6.4V7c0,1.343-.016,2.325-.048,2.921a5.893,5.893,0,0,1-.266,1.547,3.66,3.66,0,0,1-2.219,2.219,5.893,5.893,0,0,1-1.547.266c-.557.029-1.438.045-2.616.047ZM6.5,1.25c-.854,0-1.487.01-1.938.031a6.612,6.612,0,0,0-1.688.249A2.268,2.268,0,0,0,1.531,2.875a6.3,6.3,0,0,0-.249,1.688C1.26,5.012,1.25,5.646,1.25,6.5v1c0,.854.01,1.488.031,1.938a6.6,6.6,0,0,0,.249,1.688,2.38,2.38,0,0,0,1.344,1.344,6.6,6.6,0,0,0,1.688.25c.464.021,1.115.031,1.938.031h1c.844,0,1.5-.011,1.938-.031a6.277,6.277,0,0,0,1.688-.25,2.379,2.379,0,0,0,1.344-1.344,6.584,6.584,0,0,0,.25-1.688c.019-.414.029-.963.031-1.633V6.5c0-.843-.011-1.5-.031-1.938a6.29,6.29,0,0,0-.25-1.688,2.267,2.267,0,0,0-1.344-1.344,6.292,6.292,0,0,0-1.688-.249c-.391-.018-.925-.029-1.633-.031ZM7,10.594a3.523,3.523,0,0,1-1.8-.484A3.624,3.624,0,0,1,3.891,8.8a3.576,3.576,0,0,1,0-3.594A3.628,3.628,0,0,1,5.2,3.891a3.576,3.576,0,0,1,3.594,0A3.624,3.624,0,0,1,10.11,5.2a3.576,3.576,0,0,1,0,3.594A3.62,3.62,0,0,1,8.8,10.11,3.516,3.516,0,0,1,7,10.594ZM7,4.657A2.345,2.345,0,0,0,4.657,7,2.346,2.346,0,0,0,7,9.344,2.348,2.348,0,0,0,9.344,7,2.346,2.346,0,0,0,7,4.657Zm3.749-.562a.854.854,0,0,1-.843-.844.844.844,0,0,1,1.688,0,.979.979,0,0,1-.266.594A.767.767,0,0,1,10.75,4.094Z" fill="#eb0065"/>
    </g>
  </g>
  <g id="Button_Fav_icon_Copy_2" data-name="Button/Fav_icon Copy 2">
    <g id="Element_Shape-5" data-name="Element/Shape">
      <path id="Combined_Shape-6" data-name="Combined Shape" d="M19,38A19,19,0,0,1,11.6,1.493,19,19,0,0,1,26.4,36.507,18.88,18.88,0,0,1,19,38ZM19,1a18,18,0,0,0-7.007,34.586A18,18,0,0,0,26.006,2.414,17.888,17.888,0,0,0,19,1Z" fill="#6468a1"/>
    </g>
    <g id="icons-2" data-name="icons" transform="translate(13 10)">
      <path id="_Icon_Сolor-2" data-name="🎨 Icon Сolor" d="M11,.5a.5.5,0,0,0-.5-.5H8A4.77,4.77,0,0,0,3,4.5V7.2H.5a.5.5,0,0,0-.5.5v2.6a.5.5,0,0,0,.5.5H3v6.7a.5.5,0,0,0,.5.5h3a.5.5,0,0,0,.5-.5V10.8H9.619a.5.5,0,0,0,.483-.366l.721-2.6a.5.5,0,0,0-.481-.634H7V4.5a.954.954,0,0,1,1-.9h2.5a.5.5,0,0,0,.5-.5Z" fill="#eb0065"/>
    </g>
  </g>
</svg>
