<?xml version="1.0" encoding="utf-8"?>
<!-- Generator: Adobe Illustrator 23.0.3, SVG Export Plug-In . SVG Version: 6.00 Build 0)  -->
<svg version="1.1" id="logo" xmlns:svg="http://www.w3.org/2000/svg"
	 xmlns="http://www.w3.org/2000/svg" xmlns:xlink="http://www.w3.org/1999/xlink" x="0px" y="0px" viewBox="0 0 400 300"
	 style="enable-background:new 0 0 400 300;" xml:space="preserve">
<style type="text/css">
	.st0{fill-rule:evenodd;clip-rule:evenodd;fill:#FFD41F;}
	.st1{fill:#CD1041;}
	.st2{fill:#231F20;}
</style>
<path id="yellow" class="st0" d="M279.3,255.1c3.6,0,6.5-2.9,6.5-6.5v-130c0-3.6-2.9-6.5-6.5-6.5H120.7c-3.6,0-6.5,2.9-6.5,6.5v130
	c0,3.6,2.9,6.5,6.5,6.5H279.3"/>
<path id="red" class="st1" d="M216.7,61.8c0-0.7-0.9-1.8-1.6-2.2c-4.3-2.5-8.7,0.7-13,0.7c-1.6,0-3.2,0.4-4.5-0.5
	c0-0.7,0.7-0.9,0.7-1.6c-1.1,0-2.4-0.4-3.6-0.5c0,0-2.7-0.2-4.3-0.7c-6-2.5-11.5-3.8-18.4-0.5c-2.2,0.9-4.3,1.8-6.7,1.8
	c-1.1,0,1.6,2.2,1.3,3.2c-3.6,0.5-6.8,1.6-9.9,4.5v0.2c2.2,2.7,5.4,3.1,8.6,3.1c1.1,0,3.1,2.5,8.1,3.2c7.4,1.4,11.7-2.7,16.9-0.5
	c-0.4-0.9-0.4-1.4-0.4-2.2c6.1,1.6,11,1.4,15.7-0.9C210,67.7,212,61.6,216.7,61.8"/>
<path id="black_1_" class="st2" d="M200.8,90.6c-0.6-0.8-0.4-2.2-1.1-1.5c-1.4,1.4-1.1,3.5-1,5.3c0.1,0.9-0.6,0.8-0.9,0.5
	c-1.6-1.5-2.2-2.7-2.9-4.7c-1.8,0.5-2,1.9-2.1,3.3c-0.1,1.2,1,3.2-0.1,3c-2-0.3-2.9-3.6-3.1-5.9c-0.7,0-1.2,0.4-2,1.9
	c-0.5,1.1-0.8,2.8-2.5,2.6c-1.6-0.2-2.1-2.5-2.3-4.3c-0.1-1-1.1,0-1.4,0.3c-0.8,0.8-2.1,2.6-2.9,4c-1.3-1.4-1.3-3.6-1.4-6.1l-0.2,0
	c-2,0.9-4.3,7.4-7.2,7.4c-0.4,0-0.5-0.4-0.4-0.5c1.4-2,1.3-4.3,1.1-6.9c-0.1-0.8-0.5-2.3-1-1.7c0,0-2.4,2.7-3.3,3.5
	c-0.9,0.8-2.5,2.2-4.1,2.5c0-1.4,2.9-4.9,1.3-10.3c-1.3,1.4-1.8,2.6-5.6,3.7c-2.2,0.5-3.8,0.2-5.5-0.5c-0.1,1.6-0.5,3.6-1.9,5
	c0,0-5-2.6-6.4-2.4c-1.3,0.2-3.1,5.2-4,8.3c-2.1,0.1-4.8-2-5.3-4.2c-1.7,4.6-1.6,10.1-0.6,15.5c2.7,14.2,7.5,23.5,10.2,39.7
	c1,6.2-5.8,10.4-8.3,15.5c2.9,0,5.4,0.1,8.6,0c0.8,0,2-0.9,2.3-1.9c0.7-3,0.8-6.6,1.9-9.6c3.1-0.5,4-4.2,6.7-5.8
	c0.2-1.1-1.4-1.3-1.6-2.5c0.9-0.9,2.2-2,3.1-3.2c0.4-1.1-1.4-1.3-1.4-2.2s0.3-1.3,0.7-1.8c0.7-1,2.6-1.2,1.7-2.6
	c-0.9-1.3-2.5-0.8-3.4-1.9c0.5-1.8,2.2-4,3.8-4.7c-1.3-1.6-3.4-2.4-5.4-2.2v-3.8c0-0.5,0.5-0.2,0.5-0.2c2.5,1.3,4.3,2.1,6.9,3.2
	c-0.2,2.2,0.5,4.1,0.9,6.1c0.4,3.1,2.4,5,2,8.5c-0.3,2.3-2.7,3.3-4.1,4.5c-0.6,0.5-1.6,0.9-1.6,2c1.6,2.2,4.3,3.9,6.3,5.7
	c1.5-1.8,2.2-4.8,3.5-6.7c1.3-0.3,2.3-0.5,3.2-1.1c0.7-0.4,1.4-0.4,2.2-0.7c-0.5-1.8-2.3-2.7-3.6-3.8c0.7-0.7,1.8-0.7,2.9-0.9
	c0.6-0.1,1.3-0.4,1.6-1.1c-1.3-0.4-2.7-1.3-2.9-2.7c1.4-1.1,3.8-2.3,4.3-4.7c-0.7-0.9-2-0.9-2.9-1.4c-0.2-1.3,0.3-2.7,0.6-3.8
	c0.1-0.6,0.6-1.2,1.1-1.2c3.8,0.7,7.8,0.5,11.4,0c0,0,1.6-0.3,1.3,1.1c-1.1,4.7-2.7,9-3.4,13.9c-1.6,2-3.8,2.9-5.4,4.3
	c-1.3,1.1-2.9,1.3-3.4,3.1l7.2,5.8c1.3-1.5,2.5-4.2,3.4-6c0.3-0.7,0-1.8,0.7-2.5c1.6,0.2,3.2-0.4,4.7-0.5c0.2-1.6-1.3-2.3-2-3.6
	c1.3-0.4,2.9-0.1,4-0.7c0.7-0.4,1.6-1.3,1.6-2.2h-1.3c-0.3,0-0.9,0-0.7-0.5c2.2-0.5,4.5-0.9,5.9-2.9c-0.4,0-0.7-0.2-0.9-0.5
	c0.1-0.5,0.9-0.7,0.9-0.7c1.4-0.5,2.7-2.2,2.7-3.6c-1.3,0-2.9-0.4-3.2-1.6c0.7-1.3,2.2-2,3.6-2.2c2,4.5,4.7,8.7,7.7,12.6
	c0.2,0.3,0.4,0.9,0.2,1.4l-6.8,8.3c-0.4,0.4-0.4,1.1,0.2,1.1l9.7-0.4c0.7-0.1,1.3-0.4,1.4-0.9c0.2-2.7,0.2-5.4,0.5-8.1
	c1.4-1.1,2.5-3.4,4.5-3.4c-0.2-1.1-1.3-1.3-2-2c-0.2-1.4,1.1-2.2,1.8-3.2c-0.9-0.5-2.2,0.7-3.1,0.2c0.9-0.7,1.6-1.1,2.3-2.7
	c0.2-0.4-0.2-0.4-0.2-0.4c-0.9,0.4-1.7,0.1-2.3-0.2c-0.9-0.4-1.6-1.1-1.6-2c0.5-1.8,2-3.2,3.3-4.5c0.5-0.5,1-0.7,1.3-0.1
	c0.6,1.4,0.9,2.7,1.8,3.9c0.2,0.9,0.2,2,0.7,2.7c2.3,1.4,4.5,3.4,6.5,5.9c0.9,1.6,2.4,2.9,2,4.9l-5.8,8.7c-0.2,0.4-0.1,0.8-0.1,0.8
	c0.1,0.3,0.4,0.7,0.8,0.6l9.1-2.1l0.5-0.2l0.1-0.3l-0.4-6.7c0.9-1.1,2.3-1.6,3.4-2.7c-0.4-0.6-0.7-0.7-1.1-1.1c0-1.1,1.1-1.4,1.8-2
	c-0.4-1.1-2-0.9-2.3-2.2c1.4-0.9,2.5-2.2,2.7-4c-0.5-0.4-1.8,0-2.5,0c-0.7,0-3.5-0.3-4.4-1.3c-0.7-0.7-0.8-2.3-1-3.8
	c0,0,0-0.5,0.4-0.4c6.8,2.2,13.9,4,20.9,5.2c0,0,0.9,0.1,1.3,0.7c2.9,5,5.8,9.6,8.9,14.6c0.7,1.2,1.2,2.2,1.5,3.2
	c-1.6,2.9-4.1,4.7-6.5,7.5c-0.9,1.2,0.3,2.2,1,2.1l8.7-1.4c0,0,0.6-0.1,0.7-0.7c0.2-2.1,0.9-4.1,0.5-6.3c0.7-1.3,2.5-1.3,3.2-2.5
	c-0.7-0.9-1.5-1.7-2.9-2.4c-2.2-1.2-2.7-3.6-3.1-5c-1.2-3.7,2.2-2.6,2.2-5c-0.7-0.9-1.4-1.6-2.3-2.3c0-1.3,1.1-1.6,2.2-2
	c-0.2-0.7-0.7-1.2-1.3-1.5c-0.7-0.3-1.8-0.5-2.5-1.1c-0.4-0.9,2.7-1.6,2.3-4.3c-0.9,0.5-2.3,0.2-3.2-0.2c-1.1-0.9,0.7-1.8,0.2-2.7
	c-2.2-0.7-4.3-1.8-6.3-2.9c-1.4-0.8-2.1-3-2.7-4.5c-2.5-6.3-4.5-12.6-9-18c-1.1-1.3-1.4-1.4-2.9-2.5c-0.5-0.4-0.3-1.1,0.7-1.9
	c0.9-0.7,1.8-1.9,2.2-2.8c2-4,1.8-9.7-0.4-13.5c-2.5-4.7-6.1-6.3-10.4-6.3c-6.7,0-11,5.4-13.3,11c-2.9,7-2,10.5-6.7,13.9
	c-0.8,0.5-2.7,0.9-4.2-0.8c-0.7-0.9-1.6-2.3-1.1-3.6c0.5,0.4,1.1,1.3,1.8,1.8c0.7,0.5,1.7,0.6,2.4,0.2c1-0.5,1.5-1.6,1.5-2.7
	c0-1.3-0.7-2.5-1.6-3.3c-1.4-1.3-3.8-1.1-5.4-0.2c-2.2,1.1-3.4,3.4-3.1,6.1c0.2,1.8,1.2,3.1,1.9,4.9c0.2,0.5,0,1-0.8,1.1
	C202.6,92.2,201.7,91.7,200.8,90.6 M152.6,63l4.9-2.7c0.9,0.2,0.9,1.1,1.4,1.6c1.3-0.4,0.7-2.2,1.4-3.1c0.7,0,0.7,1.1,1.3,1.6
	c1.3,0,0.9-2,1.4-2.9c0.7-1.1,2.7-0.7,2.3-2.5l-1.8-8.1c-0.2-1-0.7-1.4-1.1-1.3c-6.5,2.3-11.5,4.7-17.7,6.8c-0.5,0.2-1.1,0.2-2,0.2
	l-9.9-7.4c0.5,4.3,1.1,8.3,1.4,10.8c0.2,0.5,0,0.7-0.4,0.7c-2,0-3.8,1.6-5,3.4c-1.4,3.1-3.2,5.6-6.1,6.8c0.5,1.3,1.6,2,2.7,2.3
	c0.9,0.4,1.8,0.2,2.7,0.7c0,0.4-0.2,0.6-0.4,0.9c-2.3,4.1,1.3,9.7-3.2,12.8c2,0.9,4.3,0,5.9-1.8l0.4,0.2c-1.3,2.9-1.8,6.2-1.6,9.4
	c0,0,0.1,0.8-0.2,1.7c0,0-0.3,1-0.5,1.6c5.8-0.9,8-8.4,8.4-9.6l0.2-0.2l0.1,0.2c0,0-1.7,5.4,0,7.7c0.4,0.5,1,1,1.7,1
	c0.7-2.6,2.1-5.8,4.5-7.6c2.2,0.2,4.3,1.3,6.5,2.2c1.3-3.1-1.1-7.4-1.1-7.4l0-0.1l0.2,0.1c0,0,1.8,2,2.7,2.7
	c1.1,0.7,4.3,1.4,6.1,0.4c0.6-0.4,1.6-1.3,1.8-2c-5.8,0.4-6.1-6.8-8.8-10.3l0.2-0.2c1.4,0.7,2.2,2.7,3.6,3.4c0,0,7.6,1.6,7.9,1.6
	c0.5,0.1,0.7-0.7,0.7-0.7c0.1-0.3,0.8-3.1,0.4-4.5c-0.9-0.5-1.3,0.9-2,0.9c-2-0.5-3.2-0.7-5.4-1.6l-3.6-7.2
	C152.3,63.2,152.6,63,152.6,63 M215.9,90.5l0.2-0.2c4.1-4.3,6.5-11.5,8.3-15c2.2-4,4.3-5.8,7.6-5.9c2.7-0.2,6.3,2.2,7.4,4.9
	c1.1,2.3,0.4,5.4-0.9,7.2c-1.4,2.2-4.1,2.7-6.5,2.2c-1.4-0.4-2.7-1.3-3.8-2.3c-1.6,2.5-3.8,5.4-6.3,7c-1.8,1.3-4,2.5-5.9,2.5
	L215.9,90.5 M149.7,58.4c0,1.3-0.9,2.2-2.2,2.2c-1.1,0-2-0.9-2-2.2c0-1.3,0.9-2.1,2-2.1C148.8,56.2,149.7,57.1,149.7,58.4"/>
<path id="black" class="st2" d="M137.9,229.8c0.2-13.6,8.1-23.8,20.8-23.8c9.4,0,15.2,4.9,16.5,13.4c0.9,6.5-0.2,10.4-7.7,10.4
	l-26.4,1.2c0.6,18.2,12.4,24.3,26.9,24.1h9.2l-0.1-4.2h-8.9c-13.4-0.4-20.9-6.1-21.4-16.4l24.4-1.3c5.2-0.2,8.9-2.6,8.9-9.1
	c0-11.6-6.4-22.5-21.4-22.5c-13.8,0-25.7,9.9-25.7,28.3c0,10.4,3.4,19.8,10.3,25.1h8C142.7,251.2,137.6,242.4,137.9,229.8
	 M197.7,217.8v37.3h5.6v-35.5c3-3.6,8.4-6.4,12.6-6.4c5,0,7.4,1.8,7.4,8l0,33.8h5.4v-34.5c0-7.5-3.5-11.8-12.4-11.8
	C210.9,208.8,205.2,211.6,197.7,217.8 M194.4,216.3c7.4-6.4,14.9-10.5,22.6-10.5c9.7,0,15.1,4.8,14.9,14.8v34.5h5.3v-34.5
	c0.3-11.1-5.4-18.8-19.3-18.8c-8.4,0-18.7,4-28.9,13.1l0,40.2h5.3V216.3 M255.4,208.1l3.5-0.8v47.8h5.1l-0.1-51.7
	c0-1.5-0.9-2.3-2.6-1.8l-11.1,3l0,50.5h5.1V208.1 M257.2,189.8c4,0,7.2-3.2,7.2-7.2c0-4-3.2-7.2-7.2-7.2c-4,0-7.2,3.2-7.2,7.2
	C250,186.6,253.2,189.8,257.2,189.8 M171.9,219.8c-1-7-5.4-11-13.2-11c-9.6,0-16.1,7.6-17.4,19.4l25.4-1.2
	C171.6,226.7,172.7,225.1,171.9,219.8 M167.4,220.2c0,1.5-0.8,2.7-3.6,2.8l-16.6,0.9c0.5-5.6,4.6-10.6,11-10.6
	C165.2,213.3,167.3,217.4,167.4,220.2"/>
</svg>
